<svg xmlns="http://www.w3.org/2000/svg" viewBox="0 0 650 150" role="img" aria-label="IdeasForgeAI logo">
  <defs>
    <linearGradient id="mark" x1="10" y1="15" x2="130" y2="135" gradientUnits="userSpaceOnUse">
      <stop stop-color="#39a7ff"/><stop offset=".55" stop-color="#6655ff"/><stop offset="1" stop-color="#8e3dff"/>
    </linearGradient>
    <linearGradient id="ai" x1="510" y1="45" x2="640" y2="110" gradientUnits="userSpaceOnUse">
      <stop stop-color="#6557ff"/><stop offset="1" stop-color="#9c4dff"/>
    </linearGradient>
    <linearGradient id="gold" x1="0" y1="0" x2="1" y2="1"><stop stop-color="#ffd568"/><stop offset="1" stop-color="#ffaf1a"/></linearGradient>
  </defs>
  <path d="M72 15c7.5 33 20.5 46 53.5 53.5C92.5 76 79.5 89 72 122 64.5 89 51.5 76 18.5 68.5 51.5 61 64.5 48 72 15Z" fill="url(#mark)"/>
  <path d="M72 42c3.8 17.1 9.4 22.7 26.5 26.5C81.4 72.3 75.8 77.9 72 95c-3.8-17.1-9.4-22.7-26.5-26.5C62.6 64.7 68.2 59.1 72 42Z" fill="#fff"/>
  <circle cx="38" cy="42" r="6" fill="#3d8cff"/><circle cx="108" cy="40" r="5" fill="url(#gold)"/><circle cx="103" cy="101" r="5" fill="#8b45ff"/>
  <text x="160" y="96" font-family="Inter, Arial, sans-serif" font-weight="800" font-size="64" fill="#fff">IdeasForge</text>
  <text x="530" y="96" font-family="Inter, Arial, sans-serif" font-weight="850" font-size="64" fill="url(#ai)">AI</text>
</svg>
